<?xml version="1.0" encoding="utf-8"?>
<!-- Generator: Adobe Illustrator 21.0.0, SVG Export Plug-In . SVG Version: 6.00 Build 0)  -->
<svg version="1.1" id="Layer_1" xmlns="http://www.w3.org/2000/svg" xmlns:xlink="http://www.w3.org/1999/xlink" x="0px" y="0px"
	 viewBox="0 0 418 149" style="enable-background:new 0 0 418 149;" xml:space="preserve">
<style type="text/css">
	.st0{fill:#F4BB06;}
</style>
<g>
	<path class="st0" d="M14.2,114.3v-12.8h20.7c0.1,0,0.2-0.1,0.2-0.2v-48c0-4.3,2.8-6.5,8.4-6.5h23v12.9H51.9c-0.1,0-0.2,0.1-0.2,0.2
		v3h14.5v12.9H51.7v32.2c0,4.2-2.8,6.4-8.4,6.4H14.2z M14.2,98.3V46.9h16.7v51.4H14.2z"/>
	<path class="st0" d="M85.7,98.3V46.9h16.7v51.4H85.7z"/>
	<path class="st0" d="M130.8,98.3c-5.6,0-8.4-2.1-8.4-6.4V72.5c0-4.2,2.8-6.4,8.4-6.4h12.5v-6.3c0-0.1-0.1-0.2-0.2-0.2h-3.8
		c-0.1,0-0.2,0.1-0.2,0.2v3h-16.7v-9.5c0-4.3,2.8-6.5,8.4-6.5h20.8c5.6,0,8.4,2.2,8.4,6.5v44.9H130.8z M143.3,77.4h-3.9
		c-0.1,0-0.2,0.1-0.2,0.2v7.7c0,0.1,0.1,0.2,0.2,0.2h3.9V77.4z"/>
	<path class="st0" d="M206,98.3V59.9c0-0.1-0.1-0.2-0.2-0.2h-3.9c-0.1,0-0.2,0.1-0.2,0.2v38.4H185V59.9c0-0.1-0.1-0.2-0.2-0.2H181
		c-0.1,0-0.2,0.1-0.2,0.2v38.4h-16.7V46.9h16.7v3.3c1-1.1,2.5-1.9,4.4-2.5c1.9-0.6,4.1-0.8,6.5-0.8c2.5,0,4.4,0.3,5.8,1
		c1.4,0.6,2.5,1.6,3.4,2.9c1.2-1.6,2.8-2.6,4.6-3.1c1.9-0.5,4.1-0.8,6.7-0.8c1.4,0,2.8,0.2,4.1,0.5c1.3,0.3,2.3,0.8,3.3,1.5
		c0.9,0.6,1.6,1.4,2.2,2.3c0.5,0.9,0.8,1.8,0.8,2.9v44.3H206z"/>
	<path class="st0" d="M242.6,98.3V34h16.7v12.9h12.5c5.6,0,8.4,2.2,8.4,6.5v38.5c0,4.2-2.8,6.4-8.4,6.4H242.6z M263.5,59.9
		c0-0.1-0.1-0.2-0.2-0.2h-3.9v25.7h3.9c0.1,0,0.2-0.1,0.2-0.2V59.9z"/>
	<path class="st0" d="M292.5,98.3c-5.6,0-8.4-2.1-8.4-6.4V53.4c0-4.3,2.8-6.5,8.4-6.5h20.8c5.6,0,8.4,2.2,8.4,6.5v38.5
		c0,4.2-2.8,6.4-8.4,6.4H292.5z M305,59.9c0-0.1-0.1-0.2-0.2-0.2h-3.8c-0.1,0-0.2,0.1-0.2,0.2v25.4c0,0.1,0.1,0.2,0.2,0.2h3.8
		c0.1,0,0.2-0.1,0.2-0.2V59.9z"/>
	<path class="st0" d="M355,114.3c-5.6,0-8.4-2.1-8.4-6.4V77.8c0-0.1-0.1-0.2-0.2-0.2h-3.9v20.6h-16.7V46.9H355
		c5.5,0,8.3,2.2,8.3,6.5v15c0,2.5-1.4,3.9-4.1,4.2c2.8,0.4,4.2,1.8,4.2,4.3v24.5c0,0.1,0.1,0.2,0.2,0.2H405v12.8H355z M346.6,59.9
		c0-0.1-0.1-0.2-0.2-0.2h-3.9v7.7h3.9c0.1,0,0.2-0.1,0.2-0.2V59.9z M388.3,98.3V59.9c0-0.1-0.1-0.2-0.2-0.2h-3.8
		c-0.1,0-0.2,0.1-0.2,0.2v38.4h-16.7V46.9h16.7v3.3c2.8-2.2,7-3.3,12.5-3.3c5.6,0,8.4,2.2,8.4,6.5v44.9H388.3z"/>
</g>
</svg>
